<?xml version="1.0" standalone="no"?>
<!DOCTYPE svg PUBLIC "-//W3C//DTD SVG 20010904//EN"
 "http://www.w3.org/TR/2001/REC-SVG-20010904/DTD/svg10.dtd">
<svg version="1.0" xmlns="http://www.w3.org/2000/svg"
 width="350.000000pt" height="350.000000pt" viewBox="0 0 350.000000 350.000000"
 preserveAspectRatio="xMidYMid meet">

<g transform="translate(0.000000,350.000000) scale(0.100000,-0.100000)"
fill="#000000" stroke="none">
<path d="M0 1750 l0 -1750 1750 0 1750 0 0 1750 0 1750 -1750 0 -1750 0 0
-1750z m940 773 c-126 -43 -183 -128 -182 -269 1 -347 451 -845 1022 -1130
382 -191 722 -203 838 -30 36 55 41 54 12 -4 -36 -70 -114 -115 -229 -132
-222 -33 -590 89 -901 298 -98 66 -124 79 -174 86 -119 17 -215 101 -230 201
-5 35 -19 58 -68 113 -34 38 -87 103 -118 145 -255 343 -251 650 10 730 48 14
65 8 20 -8z m345 -48 c55 -13 136 -38 180 -55 90 -35 317 -150 355 -180 14
-11 -27 7 -90 39 -203 105 -362 153 -510 153 -127 0 -192 -33 -231 -117 -117
-252 366 -819 926 -1086 357 -171 625 -168 691 8 l15 38 -4 -58 c-5 -78 -43
-131 -120 -171 -265 -135 -899 135 -1332 569 -203 203 -330 401 -365 570 -21
103 10 212 73 257 89 63 240 76 412 33z m-15 -560 c0 -80 -4 -145 -9 -145 -10
0 -117 136 -150 190 -11 19 -21 50 -21 68 l0 32 90 0 90 0 0 -145z m390 -107
c0 -245 -6 -305 -32 -341 -12 -15 -19 -12 -80 35 l-68 52 0 253 0 253 90 0 90
0 0 -252z m477 225 c144 -78 175 -289 58 -405 -15 -15 -25 -33 -22 -40 2 -7
32 -58 66 -113 33 -54 61 -105 61 -112 0 -7 -12 -13 -27 -14 -118 -2 -178 0
-181 8 -1 4 -29 51 -60 103 l-57 95 -45 0 -45 0 -3 -105 -3 -105 -57 5 c-31 3
-72 14 -89 25 l-33 19 0 334 0 334 198 -4 c181 -3 200 -5 239 -25z m383 -248
l0 -275 130 0 130 0 0 -80 0 -79 -220 -3 -220 -3 0 358 0 357 90 0 90 0 0
-275z"/>
<path d="M1887 1893 c-4 -3 -7 -44 -7 -90 l0 -83 74 0 c41 0 82 3 91 6 26 10
48 62 41 100 -10 53 -46 74 -126 74 -37 0 -70 -3 -73 -7z"/>
</g>
</svg>
